HIERARCHY
ROOT pelvis
{
  OFFSET 0 100 0
  CHANNELS 6 Xposition Yposition Zposition Zrotation Xrotation Yrotation
  JOINT pelvis_right_femur
  {
    OFFSET -10.78128 -3.44521 -0.5502486
    CHANNELS 3 Zrotation Xrotation Yrotation
    JOINT right_femur_tibia
    {
      OFFSET -0.8047443 -44.0398 -0.1307829
      CHANNELS 3 Zrotation Xrotation Yrotation
      JOINT right_tibia_foot
      {
        OFFSET 3.006224 -47.83518 -5
        CHANNELS 3 Zrotation Xrotation Yrotation
        End Site
        {
          OFFSET 0 -5 15
        }
      }
    }
  }
  JOINT pelvis_left_femur
  {
    OFFSET 10.78128 -3.44521 -0.5502486
    CHANNELS 3 Zrotation Xrotation Yrotation
    JOINT left_femur_tibia
    {
      OFFSET 0.8047443 -44.0398 -0.1307829
      CHANNELS 3 Zrotation Xrotation Yrotation
      JOINT left_tibia_foot
      {
        OFFSET -4.370144 -48.10324 -4.275266
        CHANNELS 3 Zrotation Xrotation Yrotation
        End Site
        {
          OFFSET 0 -5 15
        }
      }
    }
  }
  JOINT pelvis_spine1
  {
    OFFSET 0 6.468898 -3.129235
    CHANNELS 3 Zrotation Xrotation Yrotation
    JOINT spine1
    {
      OFFSET 0 23.15396 4.99043
      CHANNELS 3 Zrotation Xrotation Yrotation
      JOINT spine2
      {
        OFFSET 0 20.79997 -5.064912
        CHANNELS 3 Zrotation Xrotation Yrotation
        JOINT neck
        {
          OFFSET 0 14.38658 9.616178
          CHANNELS 3 Zrotation Xrotation Yrotation
          End Site
          {
            OFFSET 0 20 0
          }
        }
      }
      JOINT right_manubrium
      {
        OFFSET -5.722621 16.35077 3.967754
        CHANNELS 3 Zrotation Xrotation Yrotation
        JOINT right_clavicle
        {
          OFFSET -13.16364 1.694482 -4.693211
          CHANNELS 3 Zrotation Xrotation Yrotation
          JOINT right_humerus
          {
            OFFSET -28.5034 -0.3100689 -2.792744
            CHANNELS 3 Zrotation Xrotation Yrotation
            JOINT right_radius
            {
              OFFSET -25.15693 0.02248979 -1.271978
              CHANNELS 3 Zrotation Xrotation Yrotation
              End Site
              {
                OFFSET -15 0 0
              }
            }
          }
        }
      }
      JOINT left_manubrium
      {
        OFFSET 5.722621 16.35077 3.967754
        CHANNELS 3 Zrotation Xrotation Yrotation
        JOINT left_clavicle
        {
          OFFSET 13.16364 1.694482 -4.693211
          CHANNELS 3 Zrotation Xrotation Yrotation
          JOINT left_humerus
          {
            OFFSET 29.39168 -1.063119 -2.237045
            CHANNELS 3 Zrotation Xrotation Yrotation
            JOINT left_radius
            {
              OFFSET 24.59957 -0.9528479 0.9047498
              CHANNELS 3 Zrotation Xrotation Yrotation
              End Site
              {
                OFFSET 15 -0 -0
              }
            }
          }
        }
      }
    }
  }
}
MOTION
Frames: 19
Frame Time: 0.0416666666667
0 103.5113 0 1.043496 -1.958541 -0.0290199 3.395101 -13.82984 8.644707 -0 37.44141 -0 -6.140619 -17.74982 -5.788667 -6.312722 14.0184 -24.67192 -0 6.073236 -0 0.8481465 -20.33962 23.75812 -4.22377 -3.299684 2.875853 2.947083 7.797329 -8.451995 0.3852691 23.40943 7.729003 3.461667 -23.27339 8.464054 6.556526 -18.75118 11.5074 86.89438 36.24229 -22.00995 -0 0 15.0115 -7.347985 7.900458 5.319262 3.627901 -18.45717 -2.922145 -100.0839 40.49528 27.79629 0 0 -18.40108 -11.53216 16.00396 26.94561
0.01618135 103.3021 1.221637 0.7044738 -2.058445 -0.02707934 3.57995 -14.88601 8.538876 -0 38.27164 -0 -6.294864 -17.23764 -5.654482 -6.113989 14.13159 -24.60041 -0 5.818811 -0 0.4942501 -20.65037 23.38855 -3.810729 -3.025048 2.789334 2.687722 7.63808 -8.111608 0.7224614 23.47609 7.567215 3.23032 -23.40083 8.884579 5.981385 -18.68519 11.26881 87.1747 35.38632 -21.52175 -0 0 14.9739 -7.28199 7.901889 5.10007 3.891527 -18.34742 -2.647642 -99.476 40.01899 27.22197 0 0 -18.75375 -10.31255 16.71402 25.96531
0.1085156 102.721 2.926851 -0.09828622 -0.9314326 -0.09451307 4.454681 -20.99553 7.930345 -0 32.0221 -0 -5.839393 -14.50429 -5.550171 -5.524143 14.05323 -23.0953 -0 5.890351 -0 -0.9392866 -22.05664 21.44219 -2.9585 -2.076401 3.012441 2.842163 7.768662 -8.397226 0.8700796 22.48983 7.897858 3.666719 -24.03714 8.990749 5.717342 -18.83789 11.21535 87.43091 34.7495 -22.24037 -0 0 15.1407 -8.410369 8.586483 5.72935 4.67631 -19.27694 -2.70816 -98.25149 39.12755 26.23471 0 0 -21.13365 -10.03001 15.22695 26.40238
0.2343894 101.8501 5.072577 -0.6068392 0.1960063 -0.1342453 5.042875 -25.86417 7.443228 -0 26.55168 -0 -5.551969 -12.13384 -5.260862 -5.183433 14.21975 -21.99113 -0 6.463653 -0 -2.100289 -23.3154 19.72663 -2.463011 -1.347147 3.187631 2.971348 7.692104 -8.57324 1.035598 21.72347 8.161177 4.055094 -24.64512 9.155682 5.606107 -18.69074 11.09577 87.53161 34.64817 -22.81801 -0 0 15.02423 -9.053263 9.219731 6.053068 5.328617 -19.93518 -2.600571 -97.11415 38.40048 25.18071 0 0 -23.04406 -9.401531 14.32954 26.21553
0.3723444 100.7239 7.881285 -0.9859015 1.248472 -0.05815666 5.316301 -30.63531 6.23308 -0 21.05333 -0 -5.577627 -8.471412 -4.472412 -4.959806 14.63159 -20.26906 -0 7.60465 -0 -3.299028 -24.58599 17.40275 -2.109832 -0.5604582 3.182178 3.033105 7.628706 -8.669302 1.19263 21.0306 8.37558 4.455007 -25.21196 9.255177 5.343729 -18.20313 10.95252 87.67085 34.2806 -23.19629 -0 0 14.267 -10.00191 9.860433 6.398402 6.090089 -20.7345 -2.533128 -94.83167 36.66213 22.81284 0 0 -25.09198 -7.24401 13.90297 23.98332
0.4938962 99.45141 11.4613 -1.125936 2.175751 0.1962594 5.240816 -34.18518 4.462668 -0 16.07684 -0 -5.877129 -4.588845 -3.298924 -4.907845 15.29659 -18.36079 -0 9.47762 -0 -4.494118 -25.52411 14.79348 -2.006845 0.09751375 2.973079 3.088545 7.467634 -8.704912 1.233062 20.54743 8.561185 4.843457 -25.61538 9.224455 5.16953 -17.32867 10.84493 87.64436 34.03684 -23.33786 -0 0 12.99133 -10.87324 10.42455 6.604997 6.771536 -21.42497 -2.522779 -92.27043 34.30748 19.8668 0 0 -26.58591 -4.168636 13.88972 20.20792
0.5811784 98.19994 15.83363 -1.109722 2.843576 0.6586086 5.012545 -35.63441 2.455017 -0 12.61909 -0 -6.400921 -1.422688 -2.002763 -4.912192 16.02951 -16.55747 -0 12.09348 -0 -5.859037 -25.61531 12.08977 -1.997966 0.5240377 2.530873 3.129378 7.163745 -8.655474 1.112841 20.37976 8.697212 5.114535 -25.74806 9.050521 5.139027 -16.17866 10.81365 87.42549 33.92782 -23.13459 -0 0 11.42969 -11.51525 10.83366 6.673047 7.158634 -21.77471 -2.612865 -90.13839 31.77784 17.08948 0 0 -26.96484 -0.8913556 14.1416 15.79798
0.6416581 97.17274 20.88577 -1.202311 3.185414 1.284334 5.12628 -34.54161 1.102351 -0 11.86601 -0 -6.965546 -0.07243597 -1.211301 -4.706183 16.37057 -15.20571 -0 15.35951 -0 -7.544745 -24.165 9.672391 -1.710538 0.6250822 1.968345 3.144644 6.76534 -8.542652 0.8685259 20.49612 8.719407 5.106506 -25.65341 8.774463 5.239328 -15.15769 10.88182 87.16569 33.86303 -22.63644 -0 0 10.08773 -11.83788 11.00128 6.788052 6.966357 -21.57188 -2.779585 -89.1191 29.96891 15.57057 0 0 -26.00569 1.186849 14.36909 12.86428
0.7151671 96.56501 26.42849 -1.693935 3.376943 1.917073 5.959436 -31.65057 1.235523 -0 13.89345 -0 -7.391992 -0.859466 -1.442466 -4.122569 15.78429 -14.32618 -0 19.74519 -0 -9.179075 -20.71363 8.041658 -0.8443025 0.3720683 1.600363 3.21292 6.529622 -8.540358 0.5701072 20.58153 8.574664 4.774196 -25.67704 8.413722 5.455394 -14.77132 11.07695 87.10867 33.83062 -22.23268 -0 0 9.383193 -11.82134 10.87485 7.236847 6.107426 -20.91645 -2.874044 -89.27479 29.26397 15.98071 0 0 -24.33519 1.27064 14.02229 12.92378
0.8458938 96.52935 32.31165 -2.502355 3.646851 2.33025 7.330361 -28.36512 2.716708 -0 16.82674 -0 -7.709607 -2.825654 -2.374757 -3.423935 14.04019 -13.51549 -0 26.85492 -0 -9.848686 -15.64597 7.499541 0.3460843 -0.07804162 1.74715 3.48683 6.806315 -8.859976 0.229376 20.29875 8.311973 4.330105 -26.16271 7.916447 5.855023 -15.06167 11.43647 87.30551 34.13812 -22.39693 -0 0 9.132895 -11.42527 10.53737 8.005866 4.897825 -20.27547 -2.758249 -89.88106 28.80196 17.66412 0 0 -22.99635 0.6130603 12.50157 14.54186
1.027226 97.12697 38.42339 -3.115897 3.727064 2.334991 8.60705 -25.11131 4.494804 -0 18.46776 -0 -8.063315 -4.770668 -3.179023 -3.01813 11.15902 -12.50271 -0 37.80229 -0 -9.278654 -10.22162 7.916454 1.215558 -0.3599554 2.406521 3.884315 7.605625 -9.322419 -0.07944013 19.8773 8.019733 4.030568 -26.77753 7.349519 6.395235 -15.45056 11.89239 87.60524 35.08705 -22.98232 -0 0 8.738321 -10.83701 10.30834 8.64741 3.815493 -20.01028 -2.511554 -90.10362 27.78151 19.02637 0 0 -22.28234 0.9691123 10.33827 15.04594
1.196333 98.29668 44.59062 -3.129297 3.14534 1.879555 9.165658 -21.17579 5.648056 -0 18.28577 -0 -8.435796 -6.22735 -3.470176 -2.955548 6.903607 -11.41851 -0 50.84254 -0 -8.256831 -5.775556 9.023678 1.423627 -0.2129319 3.385124 4.043424 8.578743 -9.420773 -0.1782969 19.84029 7.743233 3.931575 -26.85893 6.946099 6.848032 -15.55397 12.29569 87.79868 36.57166 -23.22136 -0 0 8.135316 -10.69301 10.603 8.916672 3.085849 -20.04594 -2.307497 -89.98817 26.61314 19.50618 0 0 -21.75113 2.121873 8.749484 14.23202
1.291783 99.84964 50.5781 -2.569881 1.948716 1.115731 8.840105 -16.04551 5.963065 -0 16.83751 -0 -8.61235 -7.197726 -3.297185 -2.98694 0.932413 -10.32124 -0 62.05627 -0 -7.470304 -3.041149 10.56867 1.070282 0.2882936 4.574962 3.740889 9.461109 -8.917798 -0.03296977 20.25576 7.508112 3.936801 -26.3074 6.805643 7.02173 -15.65945 12.61726 87.59581 38.18289 -22.45323 -0 0 7.961765 -11.60935 11.58573 9.149938 2.686136 -20.16804 -2.204664 -90.02814 25.85396 19.84501 0 0 -21.21585 2.963943 8.211744 13.4731
1.304043 101.4301 56.19932 -1.690194 0.5283193 0.2969221 7.868381 -9.863402 5.588818 -0 14.53709 -0 -8.401426 -8.029381 -2.802584 -2.781196 -6.543593 -8.994849 -0 67.52768 -0 -6.916024 -2.156254 12.27522 0.3812225 0.8838982 5.858991 3.051951 10.14384 -7.970812 0.2153 20.84129 7.281421 3.882286 -25.41601 6.795552 6.794991 -16.23863 12.90127 86.70416 39.35763 -20.38403 -0 0 8.829798 -13.70567 12.98576 9.837425 2.563828 -20.25572 -2.162158 -90.32993 25.435 20.65925 0 0 -20.86081 3.075222 8.452659 13.40411
1.288938 102.5466 61.42251 -0.7755945 -0.7885176 -0.3778894 6.619987 -3.05831 4.70602 -0 11.60907 -0 -7.732687 -9.443412 -2.155316 -1.996499 -14.59334 -7.202344 -0 64.5951 -0 -6.35032 -2.827979 13.93522 -0.411502 1.33605 6.997695 2.194441 10.49882 -6.850002 0.4156475 21.36786 6.977709 3.605206 -24.36796 6.735709 6.083847 -17.49362 13.10625 84.97879 39.49564 -16.96613 -0 0 10.94879 -16.60787 14.22411 11.19913 2.699043 -20.17652 -2.097264 -90.70624 25.03362 21.92547 0 0 -20.67805 2.639586 8.998869 13.76698
1.353016 102.7254 66.40265 -0.1000521 -1.766811 -0.8457316 5.451489 3.855228 3.496405 -0 8.366748 -0 -6.627784 -12.10643 -1.454033 -0.4400691 -21.92568 -4.970252 -0 52.7706 -0 -5.722238 -4.399621 15.46747 -1.05411 1.512935 7.724361 1.401159 10.36535 -5.765707 0.4877239 21.74634 6.577421 3.066776 -23.19942 6.557321 4.928473 -19.27642 13.09659 82.55616 38.25128 -12.47008 -0 0 14.15782 -19.67511 14.71587 13.11025 3.078486 -19.71951 -1.906342 -91.05871 24.45704 23.34556 0 0 -20.20531 1.970232 9.433361 14.08656
1.606762 101.7011 71.43093 0.1473433 -2.256182 -1.18832 4.605403 10.3256 2.169405 -0 5.263182 -0 -5.216066 -15.99431 -0.6514396 1.635135 -27.43196 -2.785359 -0 34.64717 -0 -5.232883 -6.026278 16.87817 -1.331949 1.410856 7.914187 0.8304529 9.677349 -4.814305 0.4435859 21.98852 6.188829 2.419193 -21.95248 6.345229 3.505931 -21.15811 12.73688 79.90418 35.75643 -7.564121 -0 0 17.96013 -22.26211 14.13033 15.18419 3.671773 -18.7009 -1.519838 -91.51459 23.71848 24.65465 0 0 -18.7386 1.314639 9.477779 14.05391
2.096747 99.5584 76.82327 -0.03414988 -2.312119 -1.561246 4.122618 15.8345 1.009775 -0 2.977564 -0 -3.785193 -20.01527 0.2928961 3.441837 -30.59572 -1.496285 -0 15.81361 -0 -5.142894 -7.016761 18.17613 -1.187301 1.127717 7.682398 0.4947332 8.608982 -3.988504 0.4032998 22.16508 5.944247 1.90328 -20.7787 6.271758 2.007503 -22.62074 12.0025 77.73981 32.54752 -3.191668 -0 0 21.56714 -23.92578 12.50999 16.90604 4.375798 -17.15366 -0.9879799 -92.28001 23.01141 25.72143 0 0 -15.88517 0.8046815 9.039623 13.69916
2.769723 96.76675 82.80851 -0.4121464 -2.250907 -2.082141 3.792133 19.93325 0.4000129 -0 2.622422 -0 -2.8104 -22.26061 1.125907 4.090802 -31.46207 -1.715534 -0 2.858655 -0 -5.476378 -7.169728 19.28961 -0.8180385 0.7698458 7.333529 0.2744164 7.608962 -3.277737 0.5513937 22.33777 5.825239 1.658765 -19.93188 6.443375 0.5772727 -23.32209 11.04795 76.81918 29.35445 -0.3359721 -0 0 24.05733 -24.5313 10.28454 17.81048 4.950979 -15.46818 -0.5043859 -93.33467 22.63856 26.53408 0 0 -12.14267 0.4516972 8.242099 13.40776
